<svg id="Layer_1" enable-background="new 0 0 464.649 464.649" height="512" viewBox="0 0 464.649 464.649" width="512" xmlns="http://www.w3.org/2000/svg"><path d="m331.75 442.042c-152.59 72.5-331.38-38.61-331.38-209.69 0-186.754 211.065-297.792 364.86-190.21 145.814 102.016 127.276 323.591-33.48 399.9z" fill="#aaa"/><path d="m313.908 406.88c16.268 13.255 11.435 39.221-8.451 45.92-144.29 48.602-305.087-57.683-305.087-220.448 0-169.216 173.163-276.137 320.079-214.901 19.453 8.108 21.938 34.639 4.559 46.559-127.587 87.513-124.777 250.246-11.1 342.87z" fill="#b2b2b2"/><path d="m460.59 190.422c-57.666 41.711-139.96.933-139.96-71.55 0-32.86 17.96-61.53 44.6-76.72v-.01c49.04 34.31 84.19 87.11 95.36 148.28z" fill="#999"/><circle cx="323.15" cy="318.092" fill="#999" r="42.87"/><path d="m246.53.541c22.649 1.371 28.337 31.933 7.793 41.566-71.46 33.509-120.953 106.1-120.953 190.245 0 84.142 49.489 156.73 120.944 190.241 20.543 9.634 14.856 40.198-7.792 41.566-126.862 7.665-246.152-92.061-246.152-231.807 0-139.713 119.269-239.491 246.16-231.811z" fill="#ffe773"/></svg>